<?xml version="1.0" encoding="UTF-8"?>
<svg id="Camada_1" data-name="Camada 1" xmlns="http://www.w3.org/2000/svg" viewBox="0 0 243.9 365.7">
  <defs>
    <style>
      .cls-1 {
        fill: #d13f3f;
      }

      .cls-2 {
        fill: #a11f1b;
      }
    </style>
  </defs>
  <path id="path7604-0" class="cls-1" d="m148,69.7v17.4h0v34.8h0v17.4h0v8.7h0v8.7h0v8.7h0v8.7h0v8.7h0v8.7h0v8.7h0v8.7h0v17.4h0v34.8h0v17.4h8.7v-17.4h0v-34.8h0v-17.3h0v-17.4h0v-34.8h0v-17.4h0v-17.4h0v-34.8h0v-17.5h-8.7Zm87.1,11c-5.2,3-8.7,8.6-8.7,15.1v26.1h0v17.4h0v8.7h0v8.7h0v8.7h0v8.7h0v8.7h0v8.7h0v8.7h0v8.7h0v17.4h0v26.1c0,6.4,3.5,12.1,8.7,15.1v-6.4h0v-34.8h0v-17.3h0v-17.4h0v-34.8h0v-17.4h0v-17.4h0v-34.8h0v-6.5Zm-165.5,41.2v34.8h0v34.8h0v34.8h0v34.8h0v17.4h8.7v-17.4h0v-34.8h0v-34.7h0v-34.8h0v-23.2l-8.7-11.7ZM0,296.1v8.7h243.9v-8.7H0Zm0,17.4v8.7h105.6v-8.7H0Z"/>
  <path id="path7606-4" class="cls-2" d="m200.3,0c-14.4,0-26.1,11.7-26.1,26.1s11.7,26.1,26.1,26.1,26.1-11.7,26.1-26.1c0-14.4-11.7-26.1-26.1-26.1ZM0,69.7v8.7c9,0,16.5,6.9,17.3,15.7h34.9v3.5H17.4v7h53.1l12.2,16.3,11.4-15.2c.4-15,12.7-27,27.8-27,12,0,22.3,7.7,26.1,18.4v-27.4h-52.3l-13,17.4-13.1-17.4H0Zm174.2,0v34.8h52.3v-7h-34.8v-3.5h34.9c.9-8.8,8.3-15.7,17.3-15.7v-8.7h-69.7v.1Zm-54,12.3c-5.4.4-10.3,2.5-14.2,5.9l9.8,9.8c1.3-.9,2.7-1.5,4.3-1.8v-13.9h.1Zm3.4,0v13.9c1.6.3,3.1.9,4.3,1.8l9.8-9.8c-3.7-3.3-8.6-5.5-14.1-5.9h0Zm16.7,8.4l-9.9,9.9c.9,1.3,1.5,2.7,1.8,4.3h13.9c-.4-5.5-2.5-10.4-5.8-14.2Zm-36.8,0c-2.2,2.6-3.9,5.7-4.9,9-.5,1.6-.8,3.3-.9,5.1h13.9c.3-1.6.9-3,1.8-4.3l-9.9-9.8Zm18.4,8.9c-3.9,0-7,3.1-7,7v15.7h13.9v-15.7c.1-3.9-3-7-6.9-7Zm-104.5,8.7v13.9h52.3l13.1,17.4,13.1-17.4h15.7v-13.9h-14.8l-14.1,18.6-13.9-18.6H17.4Zm115,0v13.9h15.7v-13.9h-15.7Zm41.8,0v13.9h52.3v-13.9h-52.3ZM17.4,125.4v125.5h15.7v-125.5h-15.7Zm19.2,0v125.4h13.9v-125.4h-13.9Zm17.4,0v125.4h15.7v-125.5l-15.7.1Zm41.8,0v125.5h24.5v-125.5h-24.5Zm27.8,0v125.4h24.5v-125.5l-24.5.1Zm50.6,0v125.5h15.7v-125.5h-15.7Zm19.1,0v125.4h13.9v-125.4h-13.9Zm17.4,0v125.4h15.7v-125.5l-15.7.1ZM17.3,254.3c-.9,8.8-8.3,15.7-17.3,15.7v8.7h69.7v-24.4H17.3Zm156.9,0v24.4h69.7v-8.7c-9,0-16.5-6.9-17.3-15.7h-52.4Zm-78.4,0v24.4h52.2v-24.4h-52.2Zm26.1,59.2v52.1h34.8v-52.1h-13.9v38.2h-7v-38.2h-13.9Zm43.5,0v31.3h20.9v7h-20.9v13.9h34.8v-31.3h-20.9v-7h20.9v-13.9h-34.8Zm43.6,0v52.2h13.9v-20.9h20.9v-31.3h-34.8Zm13.9,14h7v7h-7v-7Z"/>
</svg>